<?xml version="1.0" ?><svg height="32" id="svg4917" version="1.1" width="32" xmlns="http://www.w3.org/2000/svg" xmlns:cc="http://creativecommons.org/ns#" xmlns:dc="http://purl.org/dc/elements/1.1/" xmlns:inkscape="http://www.inkscape.org/namespaces/inkscape" xmlns:rdf="http://www.w3.org/1999/02/22-rdf-syntax-ns#" xmlns:sodipodi="http://sodipodi.sourceforge.net/DTD/sodipodi-0.dtd" xmlns:svg="http://www.w3.org/2000/svg"><defs id="defs4919"/><g id="layer1" transform="translate(0,-1020.3622)"><path d="m 16.640625,1020.3594 c -1.572497,-0.063 -3.18193,0.134 -4.78125,0.5625 -8.5297048,2.2855 -13.5980365,11.0641 -11.31250008,19.5938 2.28553648,8.5298 11.06404508,13.5981 19.59375008,11.3125 8.529704,-2.2855 13.598037,-11.0641 11.3125,-19.5938 -1.856998,-6.9304 -7.998346,-11.6022 -14.8125,-11.875 z m -0.03125,1 c 6.390831,0.2524 12.131651,4.6187 13.875,11.125 2.14566,8.0077 -2.586031,16.2293 -10.59375,18.375 -5.164152,1.3838 -10.4085452,-0.1254 -14.0625001,-3.5 l 1.15625,-0.3125 c 3.3840721,2.8518 8.0620761,4.0747 12.6562501,2.8438 7.46284,-1.9997 11.874652,-9.6934 9.875,-17.1563 -1.999652,-7.4628 -9.66216,-11.9059 -17.125,-9.9062 -7.462743,1.9996 -11.90590315,9.6934 -9.9062501,17.1562 0.6591892,2.4601 1.9419255,4.5698 3.625,6.25 l -1.09375,0.3125 c -1.6116432,-1.7345 -2.843996,-3.8643 -3.5,-6.3125 -2.1456599,-8.0077 2.5860317,-16.2293 10.5937501,-18.375 1.501447,-0.4023 3.025193,-0.5583 4.5,-0.5 z m -0.09375,2 c 5.538915,0.2185 10.52018,3.9856 12.03125,9.625 1.859776,6.9408 -2.246646,14.0777 -9.1875,15.9375 -4.855653,1.301 -9.7684834,-0.3445 -12.9375001,-3.8125 l 1.125,-0.2812 c 2.9337251,2.9235 7.2785711,4.2728 11.5625001,3.125 6.395878,-1.7137 10.213768,-8.2916 8.5,-14.6875 -1.713769,-6.3959 -8.322872,-10.2138 -14.71875,-8.5 -6.3958778,1.7138 -10.1825187,8.2917 -8.4687501,14.6875 0.4615205,1.7224 1.2742632,3.2732 2.34375,4.5625 l -1.0625,0.2812 c -1.0170693,-1.3204 -1.7913335,-2.8508 -2.25,-4.5625 -1.8597758,-6.9408 2.2467434,-14.0777 9.1875001,-15.9375 1.30141,-0.3487 2.596789,-0.4879 3.875,-0.4375 z m -0.0625,2 c 4.686972,0.1847 8.908712,3.3838 10.1875,8.1563 1.573893,5.8739 -1.907358,11.8948 -7.78125,13.4687 -4.512081,1.209 -9.1145289,-0.5759 -11.7187501,-4.125 l 1.03125,-0.25 c 2.4055761,3.0125 6.4486411,4.4667 10.4062501,3.4063 5.328916,-1.4279 8.521635,-6.921 7.09375,-12.25 -1.427885,-5.3289 -6.921084,-8.4904 -12.25,-7.0625 -5.3289161,1.4278 -8.4903854,6.9211 -7.0625001,12.25 0.2700488,1.0078 0.6553926,1.9443 1.1875,2.7812 l -1,0.25 c -0.503947,-0.8487 -0.8880329,-1.7802 -1.15625,-2.7812 -1.5738931,-5.8738 1.8761086,-11.8949 7.7500001,-13.4688 1.101355,-0.2951 2.230891,-0.4176 3.3125,-0.375 z m -0.09375,2 c 3.835028,0.1508 7.297243,2.7819 8.34375,6.6875 1.288009,4.807 -1.56807,9.712 -6.375,11 -4.144953,1.1107 -8.3676853,-0.8565 -10.2812501,-4.5 l 1,-0.25 c 1.7513161,3.1009 5.4352261,4.7448 9.0312501,3.7813 4.262051,-1.142 6.798251,-5.5193 5.65625,-9.7813 -1.142,-4.262 -5.550449,-6.7982 -9.8125,-5.6562 -4.2619543,1.142 -6.7982527,5.5192 -5.6562501,9.7812 0.089501,0.334 0.2159301,0.6569 0.34375,0.9688 l -1,0.25 c -0.1186808,-0.3055 -0.2257165,-0.6137 -0.3125,-0.9375 -1.2880092,-4.8069 1.5680704,-9.7433 6.3750001,-11.0313 0.901299,-0.2415 1.802493,-0.3473 2.6875,-0.3125 z m -0.78125,2 c 3.252534,-0.1968 6.310639,1.915 7.1875,5.1875 1.002126,3.74 -1.197435,7.5603 -4.9375,8.5625 -3.739968,1.0021 -7.591625,-1.1975 -8.5937501,-4.9375 l 0.9687501,-0.25 c 0.85612,3.1951 4.148757,5.1061 7.34375,4.25 3.195089,-0.8562 5.106117,-4.1799 4.25,-7.375 -0.856117,-3.1951 -4.14866,-5.0749 -7.34375,-4.2187 -2.865805,0.7678 -4.678028,3.4831 -4.40625,6.3437 l -1.0000001,0.25 c -0.3996797,-3.3979 1.7517741,-6.6502 5.1562501,-7.5625 0.467508,-0.1253 0.910352,-0.2219 1.375,-0.25 z m 0.125,2 c 2.32394,-0.1411 4.498287,1.3799 5.125,3.7188 0.716243,2.6731 -0.858147,5.4088 -3.53125,6.125 -2.673007,0.7163 -5.40876,-0.8582 -6.125,-3.5313 -0.71624,-2.673 0.858244,-5.4088 3.53125,-6.125 0.334138,-0.09 0.668009,-0.1673 1,-0.1875 z" id="path4668" style="font-size:medium;font-style:normal;font-variant:normal;font-weight:normal;font-stretch:normal;text-indent:0;text-align:start;text-decoration:none;line-height:normal;letter-spacing:normal;word-spacing:normal;text-transform:none;direction:ltr;block-progression:tb;writing-mode:lr-tb;text-anchor:start;baseline-shift:baseline;color:#000000;fill:#000000;fill-opacity:1;stroke:none;stroke-width:0.99999988;marker:none;visibility:visible;display:inline;overflow:visible;enable-background:accumulate;font-family:Sans;-inkscape-font-specification:Sans"/></g></svg>